<svg xmlns="http://www.w3.org/2000/svg" viewBox="0 12.649999618530273 315.54998779296875 45.349998474121094" data-asc="1.084" width="315.54998779296875" height="45.349998474121094"><defs/><g fill="#000000"><g transform="translate(0, 0)"><path d="M4.25 58Q1.85 57.30 0.92 56.60Q0 55.90 0 54.85Q0 54.05 0.45 52.60Q0.90 51.15 1.77 49.18Q2.65 47.20 3.88 44.80Q5.10 42.40 6.65 39.65Q5.35 39.60 4.32 39.58Q3.30 39.55 2.65 39.55Q2.95 38.80 4.35 38.25Q5.75 37.70 8.05 37.30Q10 34.05 12.22 31.10Q14.45 28.15 16.70 25.68Q18.95 23.20 21.20 21.33Q23.45 19.45 25.50 18.35Q25.55 18 25.57 17.75Q25.60 17.50 25.60 17.40Q26.30 17.40 27.48 17.75Q28.65 18.10 29.78 18.60Q30.90 19.10 31.78 19.63Q32.65 20.15 32.75 20.50Q31.10 23.40 29.50 29.18Q27.90 34.95 26.85 43Q26.60 45 26.43 47.55Q26.25 50.10 26.25 53.25Q26.25 54.35 26.25 55.50Q26.25 56.65 26.35 57.90Q26.25 57.95 26.15 57.95Q26.05 57.95 25.75 57.95Q25.05 57.95 24.13 57.73Q23.20 57.50 22.32 57.18Q21.45 56.85 20.82 56.45Q20.20 56.05 20.05 55.75Q20 55.10 20 54.48Q20 53.85 20 53.15Q20 50.05 20.23 46.85Q20.45 43.65 21 40.25Q20.30 40.20 19.15 40.13Q18 40.05 16.57 40Q15.15 39.95 13.52 39.88Q11.90 39.80 10.35 39.75Q9.15 42 8.10 44.23Q7.05 46.45 6.30 48.70Q5.45 51.10 4.93 53.50Q4.40 55.90 4.25 58M23.55 27.95Q23.75 27.25 24.03 26.03Q24.30 24.80 24.55 23.45Q23.30 23.90 21.78 25.10Q20.25 26.30 18.63 28.08Q17 29.85 15.32 32.08Q13.65 34.30 12.10 36.80Q16.30 36.45 21.65 36.35Q22.05 34.25 22.53 32.17Q23 30.10 23.55 27.95ZM34.75 35.05Q34.50 34.75 34.30 33.78Q34.10 32.80 34.10 32.10Q35.40 32.20 36.60 32.28Q37.80 32.35 38.80 32.40Q39.55 30.90 40.42 29.43Q41.30 27.95 42.13 26.73Q42.95 25.50 43.67 24.65Q44.40 23.80 44.80 23.55Q45.30 23.55 46.08 23.73Q46.85 23.90 47.65 24.18Q48.45 24.45 49.10 24.75Q49.75 25.05 50 25.35Q48.50 27.25 47.42 28.88Q46.35 30.50 45.10 32.60Q46.10 32.60 47.13 32.55Q48.15 32.50 49.20 32.40Q49.45 32.65 49.60 33.03Q49.75 33.40 49.75 33.80Q47.30 34.70 43.80 34.80Q42.55 37.20 41.58 39.58Q40.60 41.95 39.92 44.15Q39.25 46.35 38.88 48.30Q38.50 50.25 38.50 51.80Q38.50 54 40.15 54.25Q41.65 54.05 43 53.50Q44.35 52.95 45.40 52.10Q45.70 52.55 45.75 52.85Q45.45 53.30 44.73 53.90Q44 54.50 43.15 55.08Q42.30 55.65 41.50 56.05Q40.70 56.45 40.30 56.50Q39.05 56.45 37.80 55.95Q36.55 55.45 35.52 54.70Q34.50 53.95 33.85 53.03Q33.20 52.10 33.20 51.20Q33.20 50 33.52 48.18Q33.85 46.35 34.45 44.20Q35.05 42.05 35.85 39.70Q36.65 37.35 37.60 35.05L34.75 35.05ZM49.35 53.35Q49.35 51.60 49.70 49.23Q50.05 46.85 50.72 44.15Q51.40 41.45 52.32 38.50Q53.25 35.55 54.40 32.60Q55.40 29.95 56.72 27.25Q58.05 24.55 59.60 21.95Q61.15 19.35 62.83 17Q64.50 14.65 66.20 12.70Q67 12.70 67.92 12.90Q68.85 13.10 69.72 13.42Q70.60 13.75 71.33 14.20Q72.05 14.65 72.50 15.10Q68.75 18.95 65.75 22.88Q62.75 26.80 61 30.25Q60.05 32.15 59.27 33.80Q58.50 35.45 57.85 37.08Q57.20 38.70 56.67 40.33Q56.15 41.95 55.70 43.75Q65.30 31.50 69.95 31.50Q71.25 31.50 72.75 32.35Q74.25 33.20 75.40 34.65Q73.85 36.35 72.20 38.75Q70.55 41.15 69.17 43.58Q67.80 46 66.92 48.08Q66.05 50.15 66.05 51.15Q66.05 51.65 66.20 51.83Q66.35 52 66.85 52Q67.60 52 68.05 51.80Q68.50 51.60 68.60 51.60Q68.85 52 68.90 52.15Q68.95 52.30 68.95 52.40Q68.95 52.60 68.35 52.98Q67.75 53.35 66.92 53.73Q66.10 54.10 65.30 54.40Q64.50 54.70 64.10 54.70Q63.60 54.70 63.10 54.43Q62.60 54.15 62.22 53.70Q61.85 53.25 61.63 52.70Q61.40 52.15 61.40 51.55Q61.40 50.80 61.83 49.33Q62.25 47.85 63 45.88Q63.75 43.90 64.80 41.55Q65.85 39.20 67.05 36.75Q67.05 36.55 66.85 36.55Q66.70 36.55 66.08 36.95Q65.45 37.35 64.90 37.75Q63.10 39.10 61.27 41.08Q59.45 43.05 57.72 45.40Q56 47.75 54.47 50.38Q52.95 53 51.85 55.65Q51.70 56 51.40 56.30Q51.10 56.60 50.90 56.60Q50.75 56.60 50.47 56.25Q50.20 55.90 49.97 55.38Q49.75 54.85 49.55 54.30Q49.35 53.75 49.35 53.35ZM92.50 34Q93 34 93.68 34.17Q94.35 34.35 94.90 34.63Q95.45 34.90 95.83 35.20Q96.20 35.50 96.20 35.75Q95.20 37.85 94.35 39.98Q93.50 42.10 92.90 44.05Q92.30 46 91.98 47.70Q91.65 49.40 91.65 50.65Q91.65 52.05 91.95 52.98Q92.25 53.90 92.95 54.30Q92.35 54.70 91.40 54.95Q90.45 55.20 89.70 55.20Q87 55.20 87 51.50Q87 48.65 88.90 43.70Q87.90 46 86.60 48.03Q85.30 50.05 83.95 51.60Q82.60 53.15 81.23 54.13Q79.85 55.10 78.70 55.30Q76.85 55.20 75.70 53.53Q74.55 51.85 74.55 49.25Q74.55 46.45 75.75 43.35Q76.95 40.25 78.83 37.60Q80.70 34.95 82.90 33.17Q85.10 31.40 87.15 31.30Q87.65 31.45 88.28 31.90Q88.90 32.35 89.48 32.95Q90.05 33.55 90.45 34.17Q90.85 34.80 90.90 35.25Q88.90 35.55 86.78 37.20Q84.65 38.85 82.93 41.18Q81.20 43.50 80.10 46.15Q79 48.80 79 51.10Q79 52.05 79.70 52.30Q81.15 52 83.05 49.83Q84.95 47.65 87.65 43.10Q88.15 42.20 88.78 41.10Q89.40 40 90.05 38.80Q90.70 37.60 91.33 36.38Q91.95 35.15 92.50 34ZM97.55 53.20Q97.80 51.75 98.43 49.38Q99.05 47 99.90 44.33Q100.75 41.65 101.70 38.95Q102.65 36.25 103.55 34.10Q104.20 32.55 104.70 31.68Q105.20 30.80 105.80 30.20Q106.50 30.30 107.25 30.55Q108 30.80 108.70 31.15Q109.40 31.50 109.95 31.88Q110.50 32.25 110.80 32.60Q109.45 34.20 108.43 36.25Q107.40 38.30 106.35 41.50Q109.05 39.10 111.13 36.90Q113.20 34.70 115 32Q115.30 31.75 116.05 31.75Q116.75 31.75 117.40 31.98Q118.05 32.20 118.30 32.60Q117.40 35 117.40 37.35Q117.40 39.55 118.05 40.65Q118 40.95 117.38 41.80Q116.75 42.65 116 43.40Q114.65 42.70 113.60 41.48Q112.55 40.25 112.05 38.80Q109.70 40.45 108.05 42.03Q106.40 43.60 105.23 45.53Q104.05 47.45 103.23 49.95Q102.40 52.45 101.65 55.90Q101.20 55.85 100.58 55.58Q99.95 55.30 99.33 54.90Q98.70 54.50 98.20 54.05Q97.70 53.60 97.55 53.20ZM121.65 36.50Q121.65 35.60 121.78 34.80Q121.90 34 122.30 33.42Q122.70 32.85 123.40 32.53Q124.10 32.20 125.25 32.20Q125.95 32.20 126.83 32.35Q127.70 32.50 128.10 32.90Q127.90 33.75 127.78 34.40Q127.65 35.05 127.58 35.83Q127.50 36.60 127.45 37.67Q127.40 38.75 127.35 40.45Q127.25 43.85 127.03 46.53Q126.80 49.20 126.00 51.85Q126.00 52.05 126.15 52.05Q126.90 51.50 127.85 50.45Q128.80 49.40 129.85 48.08Q130.90 46.75 131.95 45.25Q133 43.75 133.90 42.30Q135.10 40.20 136.55 37.05Q138 33.90 138.95 30.30Q139.25 30.30 139.73 30.43Q140.20 30.55 140.68 30.73Q141.15 30.90 141.53 31.10Q141.90 31.30 142.05 31.45Q141.95 33.60 141.03 35.85Q140.10 38.10 138.80 40.20Q137.50 42.30 136.05 44.15Q134.60 46 133.40 47.35Q131 50.15 128.58 52.35Q126.15 54.55 122.80 56.60Q121.50 56.10 120.75 55.28Q120.00 54.45 120.00 53.55Q120.00 52.95 120.28 52.18Q120.55 51.40 120.90 50.18Q121.25 48.95 121.53 47.10Q121.80 45.25 121.80 42.40Q121.80 40.75 121.73 39.08Q121.65 37.40 121.65 36.50ZM158.55 34Q159.05 34 159.73 34.17Q160.40 34.35 160.95 34.63Q161.50 34.90 161.88 35.20Q162.25 35.50 162.25 35.75Q161.25 37.85 160.40 39.98Q159.55 42.10 158.95 44.05Q158.35 46 158.03 47.70Q157.70 49.40 157.70 50.65Q157.70 52.05 158.00 52.98Q158.30 53.90 159.00 54.30Q158.40 54.70 157.45 54.95Q156.50 55.20 155.75 55.20Q153.05 55.20 153.05 51.50Q153.05 48.65 154.95 43.70Q153.95 46 152.65 48.03Q151.35 50.05 150.00 51.60Q148.65 53.15 147.28 54.13Q145.90 55.10 144.75 55.30Q142.90 55.20 141.75 53.53Q140.60 51.85 140.60 49.25Q140.60 46.45 141.80 43.35Q143.00 40.25 144.88 37.60Q146.75 34.95 148.95 33.17Q151.15 31.40 153.20 31.30Q153.70 31.45 154.33 31.90Q154.95 32.35 155.53 32.95Q156.10 33.55 156.50 34.17Q156.90 34.80 156.95 35.25Q154.95 35.55 152.83 37.20Q150.70 38.85 148.98 41.18Q147.25 43.50 146.15 46.15Q145.05 48.80 145.05 51.10Q145.05 52.05 145.75 52.30Q147.20 52 149.10 49.83Q151.00 47.65 153.70 43.10Q154.20 42.20 154.83 41.10Q155.45 40 156.10 38.80Q156.75 37.60 157.38 36.38Q158.00 35.15 158.55 34ZM209.50 20.50Q209.65 21.35 209.73 21.68Q209.80 22 209.80 22.55Q209.80 24.20 209.08 25.63Q208.35 27.05 207.10 27.65Q206.10 26.30 204.65 25.33Q203.20 24.35 201.48 23.73Q199.75 23.10 197.90 22.80Q196.05 22.50 194.30 22.50Q192.55 22.50 191.03 22.78Q189.50 23.05 188.33 23.53Q187.15 24 186.48 24.70Q185.80 25.40 185.80 26.30Q185.95 27.40 187.15 28.53Q188.35 29.65 190.10 30.73Q191.85 31.80 193.98 32.85Q196.10 33.90 198.15 34.85Q200.70 36.05 202.55 37.08Q204.40 38.10 205.60 39.33Q206.80 40.55 207.40 42.10Q208.00 43.65 208.00 45.85Q208.00 48.40 207.15 50.63Q206.30 52.85 204.68 54.50Q203.05 56.15 200.75 57.08Q198.45 58 195.60 58Q192.80 58 189.55 57.15Q186.30 56.30 183.48 54.83Q180.65 53.35 178.78 51.43Q176.90 49.50 176.90 47.35Q176.90 46.35 177.48 44.80Q178.05 43.25 179.55 41.55Q179.70 43.05 181.18 45.10Q182.65 47.15 185.60 48.90Q188.35 50.50 191.28 51.23Q194.20 51.95 196.75 51.95Q199.55 51.95 201.30 51.25Q203.05 50.55 204.05 49.58Q205.05 48.60 205.45 47.60Q205.85 46.60 205.90 46Q205.85 45 204.98 44.08Q204.10 43.15 202.63 42.28Q201.15 41.40 199.20 40.50Q197.25 39.60 195.15 38.70Q192.00 37.30 189.73 36.08Q187.45 34.85 185.98 33.58Q184.50 32.30 183.83 30.90Q183.15 29.50 183.15 27.70Q183.15 24.90 184.85 22.40Q186.55 19.90 189.75 18.60Q191.35 17.90 193.18 17.60Q195.00 17.30 196.75 17.30Q200.05 17.30 203.20 18.20Q206.35 19.10 209.50 20.50ZM211.30 53.35Q211.30 51.60 211.65 49.23Q212.00 46.85 212.68 44.15Q213.35 41.45 214.28 38.50Q215.20 35.55 216.35 32.60Q217.35 29.95 218.68 27.25Q220.00 24.55 221.55 21.95Q223.10 19.35 224.78 17Q226.45 14.65 228.15 12.70Q228.95 12.70 229.88 12.90Q230.80 13.10 231.68 13.42Q232.55 13.75 233.28 14.20Q234.00 14.65 234.45 15.10Q230.70 18.95 227.70 22.88Q224.70 26.80 222.95 30.25Q222.00 32.15 221.23 33.80Q220.45 35.45 219.80 37.08Q219.15 38.70 218.63 40.33Q218.10 41.95 217.65 43.75Q227.25 31.50 231.90 31.50Q233.20 31.50 234.70 32.35Q236.20 33.20 237.35 34.65Q235.80 36.35 234.15 38.75Q232.50 41.15 231.13 43.58Q229.75 46 228.88 48.08Q228.00 50.15 228.00 51.15Q228.00 51.65 228.15 51.83Q228.30 52 228.80 52Q229.55 52 230.00 51.80Q230.45 51.60 230.55 51.60Q230.80 52 230.85 52.15Q230.90 52.30 230.90 52.40Q230.90 52.60 230.30 52.98Q229.70 53.35 228.88 53.73Q228.05 54.10 227.25 54.40Q226.45 54.70 226.05 54.70Q225.55 54.70 225.05 54.43Q224.55 54.15 224.18 53.70Q223.80 53.25 223.58 52.70Q223.35 52.15 223.35 51.55Q223.35 50.80 223.78 49.33Q224.20 47.85 224.95 45.88Q225.70 43.90 226.75 41.55Q227.80 39.20 229.00 36.75Q229.00 36.55 228.80 36.55Q228.65 36.55 228.03 36.95Q227.40 37.35 226.85 37.75Q225.05 39.10 223.23 41.08Q221.40 43.05 219.68 45.40Q217.95 47.75 216.43 50.38Q214.90 53 213.80 55.65Q213.65 56 213.35 56.30Q213.05 56.60 212.85 56.60Q212.70 56.60 212.43 56.25Q212.15 55.90 211.93 55.38Q211.70 54.85 211.50 54.30Q211.30 53.75 211.30 53.35ZM237.25 50.85Q237.25 50.40 237.33 49.73Q237.40 49.05 237.60 47.93Q237.80 46.80 238.13 45.20Q238.45 43.60 238.95 41.35Q239.05 40.85 239.40 39.75Q239.75 38.65 240.33 37.42Q240.90 36.20 241.73 35.05Q242.55 33.90 243.70 33.35Q244.55 33.55 245.95 34.38Q247.35 35.20 248.35 36.65Q247.20 37.95 246.43 39.25Q245.65 40.55 245.03 41.95Q244.40 43.35 243.88 44.85Q243.35 46.35 242.70 48Q242.15 49.40 241.70 50.88Q241.25 52.35 241.20 53.45Q241.20 54.35 241.18 54.73Q241.15 55.10 240.90 55.10Q240.70 55.10 240.10 54.85Q239.50 54.60 238.88 54.08Q238.25 53.55 237.75 52.75Q237.25 51.95 237.25 50.85M246.80 29.15Q246.80 28.85 246.95 28.25Q246.70 28 246.53 27.50Q246.35 27 246.35 26.60Q246.35 26.15 246.48 25.38Q246.60 24.60 246.80 23.70Q247.00 22.80 247.30 21.83Q247.60 20.85 247.90 20.05Q248.50 20.05 249.38 20.38Q250.25 20.70 251.15 21.23Q252.05 21.75 252.80 22.38Q253.55 23 253.95 23.55Q253.40 24.10 252.50 25.08Q251.60 26.05 250.75 27.13Q249.90 28.20 249.20 29.15Q248.50 30.10 248.30 30.50Q247.70 30.40 247.25 29.98Q246.80 29.55 246.80 29.15ZM257.10 29.95Q258.40 30.35 259.55 31.73Q260.70 33.10 261.25 34.75Q260.70 36.10 259.55 38Q258.40 39.90 257.25 41.88Q256.10 43.85 255.18 45.63Q254.25 47.40 254.10 48.55Q254.90 47.70 255.88 46.58Q256.85 45.45 257.78 44.33Q258.70 43.20 259.50 42.28Q260.30 41.35 260.75 40.90Q261.70 39.90 263.00 38.58Q264.30 37.25 265.73 36.08Q267.15 34.90 268.60 34.08Q270.05 33.25 271.25 33.25Q272.55 33.25 273.43 34.13Q274.30 35 274.80 35.95Q274.80 36.05 274.43 36.23Q274.05 36.40 273.35 37.20Q272.65 38.10 271.78 39.68Q270.90 41.25 270.08 43.08Q269.25 44.90 268.70 46.80Q268.15 48.70 268.15 50.25Q268.15 51.50 268.48 51.85Q268.80 52.20 269.40 52.20Q269.95 52.20 270.55 51.95Q271.15 51.70 271.50 51.70Q271.70 51.80 271.83 52.13Q271.95 52.45 271.95 52.70Q271.55 53.05 271.00 53.40Q270.45 53.75 269.85 54.05Q269.25 54.35 268.68 54.55Q268.10 54.75 267.65 54.75Q266.20 54.75 265.28 54.33Q264.35 53.90 263.83 53.20Q263.30 52.50 263.10 51.53Q262.90 50.55 262.90 49.45Q262.90 48.85 263.00 48.10Q263.10 47.35 263.40 46.33Q263.70 45.30 264.25 43.88Q264.80 42.45 265.65 40.45Q265.55 40.45 264.30 41.15Q263.05 41.85 261.60 43.30Q259.25 45.55 257.38 47.75Q255.50 49.95 253.55 52.65Q252.45 54.20 251.63 55.28Q250.80 56.35 250.20 56.70Q249.15 56.10 248.65 55.03Q248.15 53.95 247.90 52.80Q247.90 51.85 248.18 50.40Q248.45 48.95 248.93 47.18Q249.40 45.40 250.10 43.45Q250.80 41.50 251.65 39.55Q253.55 35.15 255.13 32.65Q256.70 30.15 257.10 29.95ZM286.90 30.85Q287.90 30.85 289.20 31.45Q290.50 32.05 291.50 33Q291.25 31 290.88 29.23Q290.50 27.45 289.78 25.55Q289.05 23.65 287.85 21.40Q286.65 19.15 284.85 16.25Q285.00 15.80 285.53 15.20Q286.05 14.60 286.73 14.08Q287.40 13.55 288.13 13.15Q288.85 12.75 289.50 12.65Q290.90 14.20 292.15 16.52Q293.40 18.85 294.35 21.52Q295.30 24.20 295.83 27.05Q296.35 29.90 296.35 32.50Q296.35 35.10 295.78 37.85Q295.20 40.60 294.18 43.23Q293.15 45.85 291.80 48.20Q290.45 50.55 288.88 52.40Q287.30 54.25 285.60 55.43Q283.90 56.60 282.20 56.90Q278.75 56.50 276.93 54.68Q275.10 52.85 275.10 49.65Q275.10 47.95 275.63 45.95Q276.15 43.95 277.03 41.98Q277.90 40 279.08 38.13Q280.25 36.25 281.58 34.75Q282.90 33.25 284.25 32.20Q285.60 31.15 286.90 30.85M281.80 54.90Q283.55 54.30 285.30 52.25Q287.05 50.20 288.45 47.43Q289.85 44.65 290.73 41.48Q291.60 38.30 291.60 35.35Q291.60 34.50 291.60 34.30Q291.60 34.10 291.55 33.90Q290.35 34.40 289.00 35.60Q287.65 36.80 286.30 38.38Q284.95 39.95 283.75 41.80Q282.55 43.65 281.60 45.50Q280.65 47.35 280.10 49.05Q279.55 50.75 279.55 52.05Q279.55 54.55 281.80 54.90ZM315.55 33.50Q315.35 36.60 314.45 38.83Q313.55 41.05 311.88 42.73Q310.20 44.40 307.80 45.75Q305.40 47.10 302.20 48.35Q302.20 48.65 302.18 48.98Q302.15 49.30 302.15 49.65Q302.15 50.30 302.25 51Q302.35 51.70 302.60 52.30Q302.85 52.90 303.30 53.28Q303.75 53.65 304.45 53.65Q305.80 53.65 307.10 53.05Q308.40 52.45 309.57 51.58Q310.75 50.70 311.78 49.68Q312.80 48.65 313.60 47.80Q314.10 48.25 314.45 48.65Q312.20 51.65 309.53 53.63Q306.85 55.60 304.45 56.15Q301 55.75 299.07 53.63Q297.15 51.50 297.15 48.50Q297.15 46.45 297.73 44.33Q298.30 42.20 299.32 40.23Q300.35 38.25 301.73 36.50Q303.10 34.75 304.68 33.45Q306.25 32.15 307.93 31.40Q309.60 30.65 311.25 30.65Q313.55 30.95 315.55 33.50M312.10 35.15Q310.75 35.35 309.30 36.25Q307.85 37.15 306.57 38.65Q305.30 40.15 304.25 42.15Q303.20 44.15 302.60 46.45Q306.60 44.45 309.25 41.53Q311.90 38.60 312.10 35.15Z"/></g></g></svg>